# xmcd
#
# Track frame offsets:
#	150
#	15712
#	34182
#	56920
#	71535
#	89362
#	103072
#	119335
#	142370
#	155425
#	174175
#	188060
#	207250
#	220950
#	236950
#
# Disc length: 3377 seconds
#
# Revision: 1
# Processed by: cddbd v1.5.1PL2 Copyright (c) Steve Scherf et al.
# Submitted via: audiograbber 1.83.01
#
DISCID=e00d2f0f
DTITLE=Music Maestro Born Country - Mm6011
DYEAR=1900
DGENRE=Karaoke
TTITLE0=Alabama - Born Country
TTITLE1=Travis Tritt - Nothing Short Of Dying
TTITLE2=Wynonna Judd - She Is His Only Need
TTITLE3=Holly Dunn - Maybe I Mean Yes
TTITLE4=Trisha Yearwood - Woman Before Me
TTITLE5=Aaron Tippin - There Ain't Nothin' Wrong With The
TTITLE6=Reba Mcentire - Don't Touch Me There
TTITLE7=Judds - Love Can Build A Bridge
TTITLE8=Randy Travis - Better Class Of Losers
TTITLE9=Collin Raye - Love Me
TTITLE10=Alan Jackson - Dallas
TTITLE11=Vince Gill - Pocket Full Of Gold
TTITLE12=Clint Black - Killin' Time
TTITLE13=Reba Mcentire - Greatest Man I Never Knew
TTITLE14=Trisha Yearwood - You Done Me Wrong
EXTD=
EXTT0=
EXTT1=
EXTT2=
EXTT3=
EXTT4=
EXTT5=
EXTT6=
EXTT7=
EXTT8=
EXTT9=
EXTT10=
EXTT11=
EXTT12=
EXTT13=
EXTT14=
PLAYORDER=
